# xmcd
#
# Track frame offsets:
#	150
#	19262
#	36455
#	54189
#	68701
#	78779
#	96647
#	118444
#	128203
#	169439
#	188675
#	203465
#	215454
#	231461
#	249540
#	265676
#	282393
#	295345
#
# Disc length: 4408 seconds
#
# Revision: 3
# Processed by: cddbd v1.5.2PL0 Copyright (c) Steve Scherf et al.
# Submitted via: audiograbber 1.83.01
#
DISCID=14113612
DTITLE=Blues Image - Blues Image - Red White and Blues Image 
DYEAR=2005
DGENRE=Oldies
TTITLE0=Take Me To The Sunrise
TTITLE1=Leaving My Troubles Behind
TTITLE2=Outside Was Night
TTITLE3=In Front Behind You
TTITLE4=Lay Your Sweet Love On Me
TTITLE5=(Do You Have) Somethin' To Say
TTITLE6=Lazy Day Blues
TTITLE7=Yesterday Could Be Today
TTITLE8=Reality Does Not Inspire
TTITLE9=Rise Up
TTITLE10=Behind Every Man
TTITLE11=Gas Lamps And Clay
TTITLE12=Take Me Back
TTITLE13=It Happens All The Time
TTITLE14=Good Life
TTITLE15=It's The Truth
TTITLE16=Let's Take A Ride
TTITLE17=Ain't No Rules In California
EXTD=
EXTT0=
EXTT1=
EXTT2=
EXTT3=
EXTT4=
EXTT5=
EXTT6=
EXTT7=
EXTT8=
EXTT9=
EXTT10=
EXTT11=
EXTT12=
EXTT13=
EXTT14=
EXTT15=
EXTT16=
EXTT17=
PLAYORDER=
